<svg width="777" height="718" viewBox="0 0 777 718" fill="none" xmlns="http://www.w3.org/2000/svg">
<path fill-rule="evenodd" clip-rule="evenodd" d="M326.187 718C326.187 718 154.629 509.549 362.954 509.549C362.954 509.549 496.52 509.549 288.195 301.097C79.8703 92.6451 92.1258 301.097 92.1258 301.097C92.1258 301.097 -115.157 92.6451 92.1258 92.6451H300.45C300.45 92.6451 300.45 -115.806 508.775 92.6451C717.1 301.097 717.1 92.6451 717.1 92.6451C717.1 92.6451 851.875 308.812 717.1 301.097C663.459 298.026 617.575 264.38 581.77 238.124C527.615 198.412 496.519 175.61 496.519 301.097C496.519 405.323 529.911 457.436 546.607 483.492C553.17 493.736 557.154 499.952 555.513 503.725C552.981 509.549 537.048 509.549 496.519 509.549C362.953 509.549 459.753 718 459.753 718H326.187ZM410.56 311.215C410.56 326.102 422.631 338.171 437.522 338.171C452.413 338.171 464.484 326.102 464.484 311.215C464.484 296.328 452.413 284.259 437.522 284.259C422.631 284.259 410.56 296.328 410.56 311.215Z" fill="#CFA9F7"/>
</svg>
